<?xml version="1.0" encoding="utf-8"?>
<svg viewBox="0 0 500 500" xmlns="http://www.w3.org/2000/svg" xmlns:xlink="http://www.w3.org/1999/xlink">
  <defs>
    <linearGradient id="a">
      <stop offset="0" stop-color="#00ff8f"/>
      <stop offset="1" stop-color="#00a1ff"/>
    </linearGradient>
    <linearGradient id="c" x1="250" x2="250" y1="119.8" y2="327.7" gradientTransform="matrix(1.95654, 0, 0, 1.95654, -238.942372, -187.432817)" gradientUnits="userSpaceOnUse" xlink:href="#a"/>
    <linearGradient id="b" x1="250" x2="250" y1="0" y2="500" gradientTransform="rotate(180 250 250) scale(.99897)" gradientUnits="userSpaceOnUse" xlink:href="#a"/>
  </defs>
  <path fill="url(#b)" d="M0 0h500v500H0z"/>
  <path fill="#fff" d="M 99.569 124.096 L 400.469 124.096 L 400.469 375.936 L 99.569 375.936 Z" style=""/>
  <path fill="url(#c)" d="M 120.829 143.72 L 379.209 143.72 L 379.209 313.794 L 120.829 313.794 Z" style=""/>
  <path fill="#fff" d="M 317.885 183.786 C 329.332 183.786 337.509 192.779 337.509 203.409 L 337.509 263.099 C 337.509 273.728 329.332 282.722 317.885 282.722 C 317.885 282.722 292.537 284.357 278.638 279.452 C 260.649 272.911 263.102 249.198 250.019 248.381 C 236.936 249.198 239.389 272.911 221.4 279.452 C 207.501 284.357 182.153 282.722 182.153 282.722 C 170.706 282.722 162.529 273.728 162.529 263.099 L 162.529 203.409 C 162.529 192.779 170.706 183.786 182.153 183.786 Z M 276.184 226.304 C 276.184 240.781 291.856 249.829 304.394 242.59 C 310.213 239.23 313.797 233.023 313.797 226.304 C 313.797 211.827 298.125 202.779 285.587 210.017 C 279.769 213.376 276.184 219.585 276.184 226.304 Z M 205.047 207.497 C 190.57 207.497 181.522 223.169 188.761 235.707 C 192.121 241.526 198.328 245.11 205.047 245.11 C 219.525 245.11 228.573 229.438 221.334 216.901 C 217.975 211.082 211.767 207.497 205.047 207.497 Z" style=""/>
</svg>