<?xml version="1.0" encoding="utf-8"?>
<svg viewBox="0 0 512 512" xmlns="http://www.w3.org/2000/svg" xmlns:xlink="http://www.w3.org/1999/xlink">
  <defs>
    <linearGradient id="a">
      <stop offset="0" stop-color="#00ff8f"/>
      <stop offset="1" stop-color="#00a1ff"/>
    </linearGradient>
    <linearGradient id="c" x1="250" x2="250" y1="119.8" y2="327.7" gradientTransform="matrix(1.95654, 0, 0, 1.95654, -232.961365, -181.448814)" gradientUnits="userSpaceOnUse" xlink:href="#a"/>
    <linearGradient id="b" x1="250" x2="250" y1="0" y2="500" gradientTransform="matrix(-1.022946, 0, 0, -1.022946, 512.000537, 512.000537)" gradientUnits="userSpaceOnUse" xlink:href="#a"/>
  </defs>
  <path fill="url(#b)" d="M 0 0 L 512 0 L 512 512 L 0 512 Z" style=""/>
  <path fill="#fff" d="M 105.55 130.08 L 406.45 130.08 L 406.45 381.92 L 105.55 381.92 Z" style=""/>
  <path fill="url(#c)" d="M 126.81 149.704 L 385.19 149.704 L 385.19 319.778 L 126.81 319.778 Z" style=""/>
  <path fill="#fff" d="M 323.866 189.77 C 335.313 189.77 343.49 198.763 343.49 209.393 L 343.49 269.083 C 343.49 279.712 335.313 288.706 323.866 288.706 C 323.866 288.706 298.518 290.341 284.619 285.436 C 266.63 278.895 269.083 255.182 256 254.365 C 242.917 255.182 245.37 278.895 227.381 285.436 C 213.482 290.341 188.134 288.706 188.134 288.706 C 176.687 288.706 168.51 279.712 168.51 269.083 L 168.51 209.393 C 168.51 198.763 176.687 189.77 188.134 189.77 Z M 282.165 232.288 C 282.165 246.765 297.837 255.813 310.375 248.574 C 316.194 245.214 319.778 239.007 319.778 232.288 C 319.778 217.811 304.106 208.763 291.568 216.001 C 285.75 219.36 282.165 225.569 282.165 232.288 Z M 211.028 213.481 C 196.551 213.481 187.503 229.153 194.742 241.691 C 198.102 247.51 204.309 251.094 211.028 251.094 C 225.506 251.094 234.554 235.422 227.315 222.885 C 223.956 217.066 217.748 213.481 211.028 213.481 Z" style=""/>
</svg>