<?xml version="1.0" encoding="utf-8"?>
<svg viewBox="0 0 512 512" xmlns="http://www.w3.org/2000/svg" xmlns:xlink="http://www.w3.org/1999/xlink">
  <defs>
    <linearGradient id="a">
      <stop offset="0" stop-color="#00ff8f"/>
      <stop offset="1" stop-color="#00a1ff"/>
    </linearGradient>
    <linearGradient id="c" x1="250" x2="250" y1="119.8" y2="327.7" gradientTransform="matrix(2.450278, 0, 0, 2.450278, -356.352017, -291.840014)" gradientUnits="userSpaceOnUse" xlink:href="#a"/>
    <linearGradient id="b" x1="250" x2="250" y1="0" y2="500" gradientTransform="matrix(-1.022945, 0, 0, -1.022945, 512.000024, 512.000024)" gradientUnits="userSpaceOnUse" xlink:href="#a"/>
  </defs>
  <path fill="url(#b)" d="M 0 0 L 512 0 L 512 512 L 0 512 Z"/>
  <path fill="#fff" d="M 67.584 98.304 L 444.416 98.304 L 444.416 413.696 L 67.584 413.696 Z"/>
  <path fill="url(#c)" d="M 94.208 122.88 L 417.792 122.88 L 417.792 335.872 L 94.208 335.872 Z"/>
  <path fill="#fff" d="M 340.992 173.056 C 355.328 173.056 365.568 184.32 365.568 197.632 L 365.568 272.384 C 365.568 285.696 355.328 296.96 340.992 296.96 C 340.992 296.96 309.248 299.008 291.84 292.864 C 269.312 284.672 272.384 254.976 256 253.952 C 239.616 254.976 242.688 284.672 220.16 292.864 C 202.752 299.008 171.008 296.96 171.008 296.96 C 156.672 296.96 146.432 285.696 146.432 272.384 L 146.432 197.632 C 146.432 184.32 156.672 173.056 171.008 173.056 Z M 288.768 226.304 C 288.768 244.434 308.395 255.766 324.096 246.701 C 331.383 242.493 335.872 234.718 335.872 226.304 C 335.872 208.174 316.245 196.842 300.544 205.907 C 293.257 210.115 288.768 217.89 288.768 226.304 Z M 199.68 202.752 C 181.55 202.752 170.218 222.379 179.283 238.08 C 183.491 245.367 191.266 249.856 199.68 249.856 C 217.81 249.856 229.142 230.229 220.077 214.528 C 215.869 207.241 208.094 202.752 199.68 202.752 Z"/>
</svg>