<svg xmlns="http://www.w3.org/2000/svg" xmlns:xlink="http://www.w3.org/1999/xlink" width="1000" height="500">
  <defs>
    <linearGradient xlink:href="#a" id="b" x1="250" x2="250" y1="95.5" y2="404.5" gradientTransform="rotate(180 251.8 253.8) scale(1.03225)" gradientUnits="userSpaceOnUse"/>
    <linearGradient id="a">
      <stop offset="0" stop-color="#00ff8f"/>
      <stop offset="1" stop-color="#00a1ff"/>
    </linearGradient>
    <linearGradient xlink:href="#a" id="c" x1="250" x2="250" y1="119.8" y2="327.7" gradientTransform="translate(-145 -104.1) scale(1.58025)" gradientUnits="userSpaceOnUse"/>
  </defs>
  <path fill="#fff" d="M0 0h1000v500H0z"/>
  <path fill="#fff" stroke="url(#b)" stroke-width="26" d="M66.4 95.5h367.2v308.9H66.4z" paint-order="stroke"/>
  <path fill="url(#c)" d="M91.8 119.8h316.5v207.9H91.8z" paint-order="fill"/>
  <path fill="#fff" d="M333.4 169.2a24 24 0 0 1 24 24.1v72.5a24 24 0 0 1-24 24.1s-31.1 2.4-48.8-4.3c-21.5-8-18.6-37-34.6-37.3-16 .3-13 29.4-34.6 37.4-17.7 6.6-48.8 4.3-48.8 4.3a24 24 0 0 1-24-24.1v-72.5a24 24 0 0 1 24-24.1Zm-51.5 52a23.1 23.1 0 1 0 46.2 0 23.1 23.1 0 0 0-46.2 0Zm-87-23a23.1 23.1 0 1 0 0 46.2 23.1 23.1 0 0 0 0-46.3Z"/>
  <path d="M544.296 260.827q0-2.751-1.942-4.224-1.943-1.473-6.993-3.108-5.05-1.635-7.996-3.221-8.028-4.338-8.028-11.687 0-3.82 2.152-6.814 2.153-2.995 6.184-4.678 4.03-1.684 9.048-1.684 5.05 0 9 1.83 3.95 1.829 6.134 5.163 2.185 3.334 2.185 7.575h-9.711q0-3.237-2.04-5.034-2.04-1.796-5.73-1.796-3.561 0-5.536 1.505-1.975 1.505-1.975 3.966 0 2.298 2.315 3.852 2.315 1.554 6.815 2.914 8.287 2.492 12.075 6.183 3.787 3.69 3.787 9.194 0 6.118-4.629 9.598-4.63 3.48-12.464 3.48-5.438 0-9.906-1.99-4.467-1.991-6.814-5.455-2.347-3.464-2.347-8.029h9.744q0 7.802 9.323 7.802 3.464 0 5.407-1.408 1.942-1.408 1.942-3.934Zm26.89-31.272v8.611h5.99v6.863h-5.99v17.482q0 1.942.745 2.784.745.842 2.849.842 1.554 0 2.752-.227V273q-2.752.841-5.666.841-9.841 0-10.035-9.938v-18.874h-5.115v-6.863h5.115v-8.61Zm27.327 44.286q-7.705 0-12.545-4.726t-4.84-12.593v-.907q0-5.276 2.04-9.436t5.778-6.41q3.74-2.25 8.53-2.25 7.187 0 11.315 4.532 4.128 4.532 4.128 12.852v3.82h-22.305q.453 3.432 2.735 5.504 2.282 2.072 5.779 2.072 5.406 0 8.45-3.918l4.596 5.148q-2.104 2.978-5.698 4.645-3.593 1.667-7.963 1.667Zm-1.069-28.747q-2.784 0-4.516 1.878-1.732 1.877-2.217 5.374h13.014v-.745q-.065-3.108-1.684-4.807-1.618-1.7-4.597-1.7Zm40.467 1.845q-1.91-.259-3.367-.259-5.309 0-6.96 3.594v22.92h-9.356v-35.028h8.838l.26 4.176q2.816-4.823 7.801-4.823 1.554 0 2.914.42Zm20 26.902q-7.704 0-12.544-4.726-4.84-4.726-4.84-12.593v-.907q0-5.276 2.04-9.436t5.778-6.41q3.74-2.25 8.53-2.25 7.187 0 11.315 4.532 4.127 4.532 4.127 12.852v3.82h-22.305q.454 3.432 2.736 5.504 2.282 2.072 5.779 2.072 5.406 0 8.449-3.918l4.597 5.148q-2.104 2.978-5.698 4.645-3.593 1.667-7.964 1.667Zm-1.068-28.747q-2.784 0-4.516 1.878-1.732 1.877-2.217 5.374h13.013v-.745q-.064-3.108-1.683-4.807-1.619-1.7-4.597-1.7Zm19.327 10.262q0-5.212 2.008-9.29 2.007-4.08 5.778-6.313 3.772-2.234 8.757-2.234 7.09 0 11.573 4.338 4.484 4.338 5.002 11.784l.065 2.395q0 8.061-4.5 12.933t-12.075 4.872q-7.576 0-12.092-4.855-4.516-4.856-4.516-13.209Zm9.356.68q0 4.986 1.878 7.624 1.877 2.639 5.374 2.639 3.399 0 5.309-2.606 1.91-2.607 1.91-8.337 0-4.888-1.91-7.575-1.91-2.687-5.374-2.687-3.432 0-5.31 2.671-1.877 2.67-1.877 8.271Zm64.128 5.471 10.683-35.448h10.812l-16.413 47.135h-10.132l-16.349-47.135h10.78Zm35.184 11.687h-9.388v-35.028h9.388Zm-9.938-44.092q0-2.104 1.408-3.464 1.408-1.36 3.836-1.36 2.396 0 3.82 1.36 1.425 1.36 1.425 3.464 0 2.137-1.44 3.496-1.442 1.36-3.805 1.36-2.363 0-3.804-1.36-1.44-1.36-1.44-3.496Zm33.756 44.74q-7.704 0-12.544-4.727-4.84-4.726-4.84-12.593v-.907q0-5.276 2.04-9.436t5.778-6.41q3.74-2.25 8.53-2.25 7.187 0 11.315 4.532 4.127 4.532 4.127 12.852v3.82h-22.305q.454 3.432 2.736 5.504 2.282 2.072 5.779 2.072 5.406 0 8.449-3.918l4.597 5.148q-2.104 2.978-5.698 4.645-3.593 1.667-7.964 1.667Zm-1.068-28.748q-2.784 0-4.516 1.878-1.732 1.877-2.217 5.374h13.014v-.745q-.065-3.108-1.684-4.807-1.619-1.7-4.597-1.7Zm51.247 15.377 4.597-22.305h9.032l-8.935 35.028h-7.834l-6.636-22.046-6.637 22.046h-7.802l-8.935-35.028h9.032l4.565 22.273 6.41-22.273h6.766Zm34.378 13.37q-7.705 0-12.544-4.726-4.84-4.726-4.84-12.593v-.907q0-5.276 2.04-9.436 2.039-4.16 5.778-6.41 3.739-2.25 8.53-2.25 7.187 0 11.315 4.532 4.127 4.532 4.127 12.852v3.82h-22.305q.453 3.432 2.736 5.504 2.282 2.072 5.778 2.072 5.406 0 8.45-3.918l4.597 5.148q-2.105 2.978-5.698 4.645-3.594 1.667-7.964 1.667Zm-1.068-28.747q-2.784 0-4.516 1.878-1.732 1.877-2.218 5.374h13.014v-.745q-.065-3.108-1.683-4.807-1.619-1.7-4.597-1.7Zm40.467 1.845q-1.91-.259-3.367-.259-5.31 0-6.96 3.594v22.92h-9.356v-35.028h8.838l.259 4.176q2.816-4.823 7.802-4.823 1.553 0 2.913.42Z" style="white-space:pre"/>
</svg>